<svg width="32" height="32" viewBox="0 0 32 32" fill="none" xmlns="http://www.w3.org/2000/svg">
<g clip-path="url(#clip0_47_235)">
<circle cx="16" cy="16" r="16" fill="white"/>
<path d="M23.7917 12.5833H22.9375L21.1667 7.51325C21.0201 7.0952 20.7537 6.73396 20.4035 6.47825C20.0534 6.22255 19.6362 6.08468 19.2083 6.08325H17.5417C16.9687 6.08325 16.5 6.57075 16.5 7.16659C16.5 7.76242 16.9687 8.24992 17.5417 8.24992H19.2083L20.7292 12.5833H15.7187L15.3437 11.4999H15.4375C16.0104 11.4999 16.4792 11.0124 16.4792 10.4166C16.4792 9.82075 16.0104 9.33325 15.4375 9.33325H12.3333C11.7604 9.33325 11.2917 9.82075 11.2917 10.4166C11.2917 11.0124 11.7604 11.4999 12.3333 11.4999H13.1146L15.0104 16.9166H14.3125C13.8542 14.5008 11.9062 12.7133 9.46875 12.5941C6.55208 12.4424 4 14.9666 4 17.9999C4 21.0333 6.29167 23.4166 9.20833 23.4166C11.7708 23.4166 13.8437 21.5858 14.3125 19.0833H18.6875C19.1458 21.4991 21.0937 23.2866 23.5312 23.4058C26.4479 23.5466 29 21.0333 29 17.9891C29 14.9666 26.7083 12.5833 23.7917 12.5833ZM10.25 19.0833H12.1458C11.7083 20.4158 10.4792 21.3366 9 21.2391C7.44792 21.1416 6.15625 19.7766 6.08333 18.1516C6.01042 16.2558 7.40625 14.7499 9.20833 14.7499C10.5937 14.7499 11.7292 15.6491 12.1458 16.9166H10.25C9.67708 16.9166 9.20833 17.4041 9.20833 17.9999C9.20833 18.5958 9.67708 19.0833 10.25 19.0833ZM18.6875 16.9166H17.2292L16.4687 14.7499H19.625C19.1667 15.3783 18.8333 16.1041 18.6875 16.9166ZM23.6667 21.2499C22.0625 21.1849 20.7083 19.7658 20.6667 18.0866C20.6458 17.0466 21.0729 16.1366 21.7604 15.5299L22.4062 17.3716C22.6042 17.9349 23.1979 18.2274 23.7396 18.0216C24.2813 17.8158 24.5625 17.1983 24.3646 16.6349L23.7083 14.7608L23.7187 14.7499C24.1364 14.7351 24.5526 14.8085 24.9422 14.9656C25.3318 15.1227 25.6868 15.3603 25.9857 15.664C26.2845 15.9678 26.5211 16.3314 26.6811 16.7328C26.8411 17.1343 26.9213 17.5653 26.9167 17.9999C26.9167 19.8633 25.4792 21.3149 23.6667 21.2499Z" fill="url(#paint0_linear_47_235)"/>
</g>
<defs>
<linearGradient id="paint0_linear_47_235" x1="16.5" y1="6.08325" x2="16.5" y2="23.4166" gradientUnits="userSpaceOnUse">
<stop stop-color="#FFB60D"/>
<stop offset="1" stop-color="#E59317"/>
</linearGradient>
<clipPath id="clip0_47_235">
<rect width="32" height="32" fill="white"/>
</clipPath>
</defs>
</svg>
